<svg xmlns="http://www.w3.org/2000/svg" viewBox="0 0 240 64" role="img" aria-label="Kalza">
  <rect x="6" y="6" width="14" height="52" rx="4" fill="#0B0F14"/>
  <g fill="#FAFAF8" opacity="0.85">
    <rect x="10" y="12" width="6" height="2" rx="1"/>
    <rect x="10" y="18" width="4" height="2" rx="1"/>
    <rect x="10" y="24" width="6" height="2" rx="1"/>
    <rect x="10" y="30" width="4" height="2" rx="1"/>
    <rect x="10" y="36" width="6" height="2" rx="1"/>
    <rect x="10" y="42" width="4" height="2" rx="1"/>
    <rect x="10" y="48" width="6" height="2" rx="1"/>
  </g>
  <path d="M24 32 L42 12 L50 12 L32 32 L50 52 L42 52 Z" fill="#0B0F14"/>
  <path d="M44 44 L52 52 L62 38" stroke="#0EA6A6" stroke-width="6" stroke-linecap="round" stroke-linejoin="round" fill="none"/>
  <text x="76" y="44" font-family="Geist, Inter, system-ui, sans-serif" font-weight="700" font-size="32" fill="#0B0F14" letter-spacing="2">KALZA</text>
</svg>
